<mxfile host="app.diagrams.net" agent="Mozilla/5.0 (Windows NT 10.0; Win64; x64) AppleWebKit/537.36 (KHTML, like Gecko) Chrome/132.0.0.0 Safari/537.36" version="24.7.6">
  <diagram name="Backend Architecture" id="q-QxZ-FiSOyDASbyV83v">
    <mxGraphModel grid="1" page="1" gridSize="10" guides="1" tooltips="1" connect="1" arrows="1" fold="1" pageScale="1" pageWidth="827" pageHeight="1169" math="0" shadow="0">
      <root>
        <mxCell id="0" />
        <mxCell id="1" parent="0" />
        <mxCell id="QzM9x1swEyCrzTvG9WIi-57" style="edgeStyle=orthogonalEdgeStyle;rounded=0;orthogonalLoop=1;jettySize=auto;html=1;exitX=0.75;exitY=0;exitDx=0;exitDy=0;entryX=0.75;entryY=1;entryDx=0;entryDy=0;" edge="1" parent="1" source="QzM9x1swEyCrzTvG9WIi-2" target="QzM9x1swEyCrzTvG9WIi-18">
          <mxGeometry relative="1" as="geometry">
            <Array as="points">
              <mxPoint x="431" y="470" />
              <mxPoint x="480" y="470" />
              <mxPoint x="480" y="420" />
              <mxPoint x="413" y="420" />
            </Array>
          </mxGeometry>
        </mxCell>
        <mxCell id="QzM9x1swEyCrzTvG9WIi-2" value="Express.js Server" style="rounded=1;whiteSpace=wrap;html=1;" vertex="1" parent="1">
          <mxGeometry x="326" y="480" width="140" height="60" as="geometry" />
        </mxCell>
        <mxCell id="QzM9x1swEyCrzTvG9WIi-9" edge="1" parent="1" source="QzM9x1swEyCrzTvG9WIi-2" target="QzM9x1swEyCrzTvG9WIi-3">
          <mxGeometry relative="1" as="geometry" />
        </mxCell>
        <mxCell id="QzM9x1swEyCrzTvG9WIi-60" style="edgeStyle=orthogonalEdgeStyle;rounded=0;orthogonalLoop=1;jettySize=auto;html=1;exitX=0.5;exitY=0;exitDx=0;exitDy=0;entryX=0;entryY=0.25;entryDx=0;entryDy=0;" edge="1" parent="1" source="QzM9x1swEyCrzTvG9WIi-15" target="QzM9x1swEyCrzTvG9WIi-43">
          <mxGeometry relative="1" as="geometry" />
        </mxCell>
        <mxCell id="QzM9x1swEyCrzTvG9WIi-61" style="edgeStyle=orthogonalEdgeStyle;rounded=0;orthogonalLoop=1;jettySize=auto;html=1;exitX=0.5;exitY=1;exitDx=0;exitDy=0;entryX=0;entryY=0.75;entryDx=0;entryDy=0;" edge="1" parent="1" source="QzM9x1swEyCrzTvG9WIi-15" target="QzM9x1swEyCrzTvG9WIi-18">
          <mxGeometry relative="1" as="geometry" />
        </mxCell>
        <mxCell id="QzM9x1swEyCrzTvG9WIi-15" value="React Frontend" style="rounded=1;whiteSpace=wrap;html=1;" vertex="1" parent="1">
          <mxGeometry x="120" y="260" width="100" height="60" as="geometry" />
        </mxCell>
        <mxCell id="QzM9x1swEyCrzTvG9WIi-16" value="Reusable Components" style="rounded=1;whiteSpace=wrap;html=1;" vertex="1" parent="1">
          <mxGeometry x="314" y="190" width="140" height="30" as="geometry" />
        </mxCell>
        <mxCell id="QzM9x1swEyCrzTvG9WIi-18" value="Services" style="rounded=1;whiteSpace=wrap;html=1;" vertex="1" parent="1">
          <mxGeometry x="337.5" y="350" width="100" height="60" as="geometry" />
        </mxCell>
        <mxCell id="QzM9x1swEyCrzTvG9WIi-43" value="" style="rounded=0;whiteSpace=wrap;html=1;fillColor=none;" vertex="1" parent="1">
          <mxGeometry x="250" y="180" width="275" height="150" as="geometry" />
        </mxCell>
        <mxCell id="QzM9x1swEyCrzTvG9WIi-38" style="edgeStyle=orthogonalEdgeStyle;rounded=0;orthogonalLoop=1;jettySize=auto;html=1;entryX=0;entryY=0.5;entryDx=0;entryDy=0;" edge="1" parent="1" source="QzM9x1swEyCrzTvG9WIi-36" target="QzM9x1swEyCrzTvG9WIi-15">
          <mxGeometry relative="1" as="geometry" />
        </mxCell>
        <mxCell id="QzM9x1swEyCrzTvG9WIi-52" style="edgeStyle=orthogonalEdgeStyle;rounded=0;orthogonalLoop=1;jettySize=auto;html=1;exitX=0;exitY=0.5;exitDx=0;exitDy=0;entryX=0;entryY=0.5;entryDx=0;entryDy=0;" edge="1" parent="1" source="QzM9x1swEyCrzTvG9WIi-35" target="QzM9x1swEyCrzTvG9WIi-18">
          <mxGeometry relative="1" as="geometry">
            <Array as="points">
              <mxPoint x="230" y="250" />
              <mxPoint x="230" y="380" />
            </Array>
          </mxGeometry>
        </mxCell>
        <mxCell id="QzM9x1swEyCrzTvG9WIi-35" value="Visualize" style="rounded=1;whiteSpace=wrap;html=1;" vertex="1" parent="1">
          <mxGeometry x="270" y="230" width="110" height="40" as="geometry" />
        </mxCell>
        <mxCell id="QzM9x1swEyCrzTvG9WIi-36" value="Actor" style="shape=umlActor;verticalLabelPosition=bottom;verticalAlign=top;html=1;outlineConnect=0;" vertex="1" parent="1">
          <mxGeometry x="20" y="230" width="60" height="120" as="geometry" />
        </mxCell>
        <mxCell id="QzM9x1swEyCrzTvG9WIi-55" style="edgeStyle=orthogonalEdgeStyle;rounded=0;orthogonalLoop=1;jettySize=auto;html=1;exitX=1;exitY=0.5;exitDx=0;exitDy=0;entryX=1;entryY=0.5;entryDx=0;entryDy=0;" edge="1" parent="1" source="QzM9x1swEyCrzTvG9WIi-40" target="QzM9x1swEyCrzTvG9WIi-18">
          <mxGeometry relative="1" as="geometry">
            <mxPoint x="440" y="380" as="targetPoint" />
            <Array as="points">
              <mxPoint x="550" y="250" />
              <mxPoint x="550" y="380" />
            </Array>
          </mxGeometry>
        </mxCell>
        <mxCell id="QzM9x1swEyCrzTvG9WIi-40" value="Compare&lt;span style=&quot;color: rgba(0, 0, 0, 0); font-family: monospace; font-size: 0px; text-align: start; text-wrap-mode: nowrap;&quot;&gt;%3CmxGraphModel%3E%3Croot%3E%3CmxCell%20id%3D%220%22%2F%3E%3CmxCell%20id%3D%221%22%20parent%3D%220%22%2F%3E%3CmxCell%20id%3D%222%22%20value%3D%22Visualize%22%20style%3D%22rounded%3D1%3BwhiteSpace%3Dwrap%3Bhtml%3D1%3B%22%20vertex%3D%221%22%20parent%3D%221%22%3E%3CmxGeometry%20x%3D%2280%22%20y%3D%22310%22%20width%3D%22110%22%20height%3D%2260%22%20as%3D%22geometry%22%2F%3E%3C%2FmxCell%3E%3C%2Froot%3E%3C%2FmxGraphModel%3E&lt;/span&gt;" style="rounded=1;whiteSpace=wrap;html=1;" vertex="1" parent="1">
          <mxGeometry x="400" y="230" width="110" height="40" as="geometry" />
        </mxCell>
        <mxCell id="QzM9x1swEyCrzTvG9WIi-54" style="edgeStyle=orthogonalEdgeStyle;rounded=0;orthogonalLoop=1;jettySize=auto;html=1;entryX=1;entryY=0.25;entryDx=0;entryDy=0;" edge="1" parent="1" source="QzM9x1swEyCrzTvG9WIi-41" target="QzM9x1swEyCrzTvG9WIi-18">
          <mxGeometry relative="1" as="geometry">
            <Array as="points">
              <mxPoint x="540" y="300" />
              <mxPoint x="540" y="365" />
            </Array>
          </mxGeometry>
        </mxCell>
        <mxCell id="QzM9x1swEyCrzTvG9WIi-41" value="Classify" style="rounded=1;whiteSpace=wrap;html=1;" vertex="1" parent="1">
          <mxGeometry x="400" y="280" width="110" height="40" as="geometry" />
        </mxCell>
        <mxCell id="QzM9x1swEyCrzTvG9WIi-42" value="Match" style="rounded=1;whiteSpace=wrap;html=1;" vertex="1" parent="1">
          <mxGeometry x="270" y="280" width="110" height="40" as="geometry" />
        </mxCell>
        <mxCell id="QzM9x1swEyCrzTvG9WIi-53" style="edgeStyle=orthogonalEdgeStyle;rounded=0;orthogonalLoop=1;jettySize=auto;html=1;entryX=0.008;entryY=0.344;entryDx=0;entryDy=0;entryPerimeter=0;" edge="1" parent="1" source="QzM9x1swEyCrzTvG9WIi-42" target="QzM9x1swEyCrzTvG9WIi-18">
          <mxGeometry relative="1" as="geometry">
            <Array as="points">
              <mxPoint x="240" y="300" />
              <mxPoint x="240" y="371" />
            </Array>
          </mxGeometry>
        </mxCell>
        <mxCell id="QzM9x1swEyCrzTvG9WIi-56" style="edgeStyle=orthogonalEdgeStyle;rounded=0;orthogonalLoop=1;jettySize=auto;html=1;exitX=0.25;exitY=1;exitDx=0;exitDy=0;entryX=0.212;entryY=0;entryDx=0;entryDy=0;entryPerimeter=0;" edge="1" parent="1" source="QzM9x1swEyCrzTvG9WIi-18" target="QzM9x1swEyCrzTvG9WIi-2">
          <mxGeometry relative="1" as="geometry">
            <Array as="points">
              <mxPoint x="363" y="420" />
              <mxPoint x="300" y="420" />
              <mxPoint x="300" y="470" />
              <mxPoint x="356" y="470" />
            </Array>
          </mxGeometry>
        </mxCell>
        <mxCell id="QzM9x1swEyCrzTvG9WIi-58" value="&lt;font style=&quot;font-size: 15px;&quot;&gt;Session cookies&lt;/font&gt;" style="text;strokeColor=none;fillColor=none;align=left;verticalAlign=middle;spacingLeft=4;spacingRight=4;overflow=hidden;points=[[0,0.5],[1,0.5]];portConstraint=eastwest;rotatable=0;whiteSpace=wrap;html=1;" vertex="1" parent="1">
          <mxGeometry x="330" y="430" width="120" height="30" as="geometry" />
        </mxCell>
        <mxCell id="QzM9x1swEyCrzTvG9WIi-59" value="" style="rounded=0;whiteSpace=wrap;html=1;fillColor=none;dashed=1;" vertex="1" parent="1">
          <mxGeometry x="100" y="140" width="470" height="290" as="geometry" />
        </mxCell>
        <mxCell id="QzM9x1swEyCrzTvG9WIi-64" value="" style="rounded=0;whiteSpace=wrap;html=1;fillColor=none;dashed=1;" vertex="1" parent="1">
          <mxGeometry x="137.75" y="550" width="492.5" height="200" as="geometry" />
        </mxCell>
        <mxCell id="QzM9x1swEyCrzTvG9WIi-63" value="&lt;font style=&quot;font-size: 16px;&quot;&gt;Front-end&lt;/font&gt;" style="text;strokeColor=none;fillColor=none;html=1;fontSize=24;fontStyle=1;verticalAlign=middle;align=center;" vertex="1" parent="1">
          <mxGeometry x="280" y="140" width="100" height="40" as="geometry" />
        </mxCell>
        <mxCell id="QzM9x1swEyCrzTvG9WIi-65" style="edgeStyle=orthogonalEdgeStyle;rounded=0;orthogonalLoop=1;jettySize=auto;html=1;exitX=0.25;exitY=1;exitDx=0;exitDy=0;entryX=0.5;entryY=0;entryDx=0;entryDy=0;" edge="1" parent="1" source="QzM9x1swEyCrzTvG9WIi-3" target="QzM9x1swEyCrzTvG9WIi-5">
          <mxGeometry relative="1" as="geometry" />
        </mxCell>
        <mxCell id="QzM9x1swEyCrzTvG9WIi-66" style="edgeStyle=orthogonalEdgeStyle;rounded=0;orthogonalLoop=1;jettySize=auto;html=1;exitX=0.75;exitY=1;exitDx=0;exitDy=0;entryX=0.5;entryY=0;entryDx=0;entryDy=0;" edge="1" parent="1" source="QzM9x1swEyCrzTvG9WIi-3" target="QzM9x1swEyCrzTvG9WIi-4">
          <mxGeometry relative="1" as="geometry" />
        </mxCell>
        <mxCell id="QzM9x1swEyCrzTvG9WIi-3" value="Controllers" style="rounded=1;whiteSpace=wrap;html=1;" vertex="1" parent="1">
          <mxGeometry x="346" y="570" width="100" height="60" as="geometry" />
        </mxCell>
        <mxCell id="QzM9x1swEyCrzTvG9WIi-4" value="SPARQL Services" style="rounded=1;whiteSpace=wrap;html=1;" vertex="1" parent="1">
          <mxGeometry x="445" y="670" width="140" height="60" as="geometry" />
        </mxCell>
        <mxCell id="QzM9x1swEyCrzTvG9WIi-5" value="RDF Processing Services" style="rounded=1;whiteSpace=wrap;html=1;" vertex="1" parent="1">
          <mxGeometry x="185" y="670" width="160" height="60" as="geometry" />
        </mxCell>
        <mxCell id="QzM9x1swEyCrzTvG9WIi-6" value="Remote&lt;div&gt;SPARQL Endpoints&lt;/div&gt;" style="rounded=1;whiteSpace=wrap;html=1;" vertex="1" parent="1">
          <mxGeometry x="445" y="780" width="140" height="30" as="geometry" />
        </mxCell>
        <mxCell id="QzM9x1swEyCrzTvG9WIi-7" value="Local datasets" style="rounded=1;whiteSpace=wrap;html=1;" vertex="1" parent="1">
          <mxGeometry x="195" y="780" width="140" height="30" as="geometry" />
        </mxCell>
        <mxCell id="QzM9x1swEyCrzTvG9WIi-12" edge="1" parent="1" source="QzM9x1swEyCrzTvG9WIi-4" target="QzM9x1swEyCrzTvG9WIi-6">
          <mxGeometry relative="1" as="geometry" />
        </mxCell>
        <mxCell id="QzM9x1swEyCrzTvG9WIi-13" edge="1" parent="1" source="QzM9x1swEyCrzTvG9WIi-5" target="QzM9x1swEyCrzTvG9WIi-7">
          <mxGeometry relative="1" as="geometry" />
        </mxCell>
        <mxCell id="QzM9x1swEyCrzTvG9WIi-25" value="" style="verticalLabelPosition=bottom;html=1;verticalAlign=top;align=center;strokeColor=none;fillColor=#00BEF2;shape=mxgraph.azure.rdp_remoting_file;pointerEvents=1;" vertex="1" parent="1">
          <mxGeometry x="195" y="820" width="40" height="40" as="geometry" />
        </mxCell>
        <mxCell id="QzM9x1swEyCrzTvG9WIi-26" value="" style="verticalLabelPosition=bottom;html=1;verticalAlign=top;align=center;strokeColor=none;fillColor=#00BEF2;shape=mxgraph.azure.rdp_remoting_file;pointerEvents=1;" vertex="1" parent="1">
          <mxGeometry x="245" y="820" width="40" height="40" as="geometry" />
        </mxCell>
        <mxCell id="QzM9x1swEyCrzTvG9WIi-27" value="" style="verticalLabelPosition=bottom;html=1;verticalAlign=top;align=center;strokeColor=none;fillColor=#00BEF2;shape=mxgraph.azure.rdp_remoting_file;pointerEvents=1;" vertex="1" parent="1">
          <mxGeometry x="295" y="820" width="40" height="40" as="geometry" />
        </mxCell>
        <mxCell id="QzM9x1swEyCrzTvG9WIi-29" value="" style="rounded=0;whiteSpace=wrap;html=1;strokeWidth=1;gradientColor=default;fillColor=none;" vertex="1" parent="1">
          <mxGeometry x="170" y="770" width="190" height="110" as="geometry" />
        </mxCell>
        <mxCell id="QzM9x1swEyCrzTvG9WIi-32" value="" style="rounded=0;whiteSpace=wrap;html=1;strokeWidth=1;gradientColor=default;fillColor=none;" vertex="1" parent="1">
          <mxGeometry x="420" y="770" width="190" height="110" as="geometry" />
        </mxCell>
        <mxCell id="QzM9x1swEyCrzTvG9WIi-31" value="" style="shape=datastore;whiteSpace=wrap;html=1;" vertex="1" parent="1">
          <mxGeometry x="446" y="820" width="40" height="40" as="geometry" />
        </mxCell>
        <mxCell id="QzM9x1swEyCrzTvG9WIi-33" value="" style="shape=datastore;whiteSpace=wrap;html=1;" vertex="1" parent="1">
          <mxGeometry x="495" y="820" width="40" height="40" as="geometry" />
        </mxCell>
        <mxCell id="QzM9x1swEyCrzTvG9WIi-34" value="" style="shape=datastore;whiteSpace=wrap;html=1;" vertex="1" parent="1">
          <mxGeometry x="545" y="820" width="40" height="40" as="geometry" />
        </mxCell>
        <mxCell id="QzM9x1swEyCrzTvG9WIi-71" value="&lt;font style=&quot;font-size: 16px;&quot;&gt;Back-end&lt;/font&gt;" style="text;strokeColor=none;fillColor=none;html=1;fontSize=24;fontStyle=1;verticalAlign=middle;align=center;" vertex="1" parent="1">
          <mxGeometry x="165" y="565" width="100" height="40" as="geometry" />
        </mxCell>
      </root>
    </mxGraphModel>
  </diagram>
</mxfile>
